<?xml version="1.0" encoding="UTF-8"?>
<svg id="Layer_1" xmlns="http://www.w3.org/2000/svg" version="1.1" viewBox="0 0 64 64">
  <!-- Generator: Adobe Illustrator 29.2.1, SVG Export Plug-In . SVG Version: 2.1.0 Build 116)  -->
  <defs>
    <style>
      .st0 {
        fill: #fff;
      }

      .st0, .st1 {
        stroke: #231f20;
        stroke-miterlimit: 10;
      }

      .st1 {
        fill: #231f20;
      }
    </style>
  </defs>
  <path class="st0" d="M44.6,40.7c-1.7,5.9-6.9,13.4-13.4,13.4-6.7,0-13.2-7-13.4-13.4-.2-8.1,10-10.1,11.1-20,.9-8.6-6.1-14.7-5.3-15.2,1.4-1,25.8,18.2,21,35.2Z"/>
  <path class="st1" d="M44.1,39.5c-1.1,6.1-6,15-13.2,14.6-5.3-.3-10.4-5.5-10.6-10.4-.5-9.6,16.9-17.8,22.2-14.2,3,2.1,2,8.2,1.6,10Z"/>
  <path class="st1" d="M52.6,36.8"/>
</svg>