<?xml version="1.0" encoding="UTF-8"?>
<svg id="Layer_1" xmlns="http://www.w3.org/2000/svg" version="1.1" viewBox="0 0 60 64">
  <!-- Generator: Adobe Illustrator 29.2.1, SVG Export Plug-In . SVG Version: 2.1.0 Build 116)  -->
  <defs>
    <style>
      .st0 {
        fill: #fff;
      }

      .st0, .st1 {
        stroke: #231f20;
        stroke-miterlimit: 10;
      }

      .st1 {
        fill: none;
      }
    </style>
  </defs>
  <circle class="st0" cx="29.7" cy="31.4" r="24.2"/>
  <g id="Layer_2">
    <line class="st1" x1="6.7" y1="39.2" x2="52.4" y2="22.4"/>
    <line class="st1" x1="38.5" y1="54.3" x2="21.8" y2="8.7"/>
    <line class="st1" x1="7.3" y1="21.4" x2="51.9" y2="40.6"/>
    <line class="st1" x1="20" y1="53.5" x2="39.4" y2="8.9"/>
    <line class="st1" x1="54.2" y1="33.1" x2="5.6" y2="30.5"/>
    <line class="st1" x1="30.9" y1="6.8" x2="28.4" y2="55.2"/>
    <line class="st1" x1="46.7" y1="49.2" x2="13.2" y2="14"/>
    <line class="st1" x1="47.6" y1="14.7" x2="12.3" y2="48.1"/>
  </g>
  <circle class="st0" cx="29.7" cy="31" r="18"/>
  <line class="st1" x1="11.8" y1="30.5" x2="47.9" y2="30.5"/>
  <line class="st1" x1="30.1" y1="49.1" x2="30.1" y2="13"/>
  <line class="st1" x1="16.7" y1="18.2" x2="42.9" y2="43"/>
  <line class="st1" x1="17.4" y1="43.9" x2="42.3" y2="17.7"/>
  <circle class="st0" cx="30.1" cy="30.6" r="8.5"/>
  <circle class="st0" cx="25.9" cy="30.1" r=".9"/>
  <circle class="st0" cx="30.2" cy="35" r=".9"/>
  <circle class="st0" cx="34.3" cy="30.3" r=".9"/>
  <circle class="st0" cx="30.2" cy="25.8" r=".9"/>
</svg>